# xmcd
#
# Track frame offsets: 
#        150
#        13404
#        34517
#        49928
#        68165
#        80862
#        95367
#        111870
#        130980
#        143896
#        154614
#        172908
#        185883
#        201498
#        216496
#        232035
#        246734
#        263262
#        276204
#        297515
#        312654
#
# Disc length: 4434 seconds
#
# Revision: 2
# Processed by: cddbd v1.5.2PL0 Copyright (c) Steve Scherf et al.
# Submitted via: ExactAudioCopy v1.1
#
DISCID=50115015
DTITLE=Various Artist - Country forever
DYEAR=2006
DGENRE=Country
TTITLE0=Lynn Anderson - (I never promised you a) Rose garden
TTITLE1=Lynyrd Skynyrd - Sweet home Alabama
TTITLE2=Billy Ray Cyrus - Achy breaky heart
TTITLE3=Trisha Yearwood - How do I live?
TTITLE4=LeAnn Rimes - Blue
TTITLE5=Chely Wright - C'est la vie (You never can tell)
TTITLE6=Toby Keith - You shouldn't kiss me like this
TTITLE7=Kris Kristofferson - Me and Bobby McGee
TTITLE8=Roy Rivers - Dolly Parton - Thank God, I'm a country boy
TTITLE9=Dwight Yoakam - Crazy little thing called love
TTITLE10=Randy Travis - Hard rock bottom of your heart
TTITLE11=Kenny Rogers - Ruby, don't take your love to town
TTITLE12=Jo Dee Messina - Heads Carolina, tails California
TTITLE13=Mark Chesnutt - Somebody, save the honky tonks
TTITLE14=Don Williams - Wonderful tonight
TTITLE15=Glen Campbell - Rhinestone cowboy
TTITLE16=Trace Adkins - Honky tonk badonkadonk
TTITLE17=Dave Dudley - The pool shark
TTITLE18=Texas - Prayer for you
TTITLE19=Boppin'B - If you believe
TTITLE20=The BossHoss - Hot in herre
EXTD=YEAR: 2006
EXTT0=
EXTT1=
EXTT2=
EXTT3=
EXTT4=
EXTT5=
EXTT6=
EXTT7=
EXTT8=
EXTT9=
EXTT10=
EXTT11=
EXTT12=
EXTT13=
EXTT14=
EXTT15=
EXTT16=
EXTT17=
EXTT18=
EXTT19=
EXTT20=
PLAYORDER=
